<svg width="156" height="41" viewBox="0 0 156 41" fill="none" xmlns="http://www.w3.org/2000/svg">
<path d="M23.4729 19.2134C23.4897 17.8936 23.8365 16.5995 24.4811 15.4516C25.1256 14.3036 26.0469 13.3392 27.1592 12.6478C26.4526 11.6277 25.5203 10.7881 24.4365 10.1958C23.3528 9.60351 22.1473 9.27483 20.9159 9.23586C18.2889 8.95708 15.7424 10.8248 14.4037 10.8248C13.0393 10.8248 10.9783 9.26353 8.759 9.30971C7.32346 9.35656 5.92441 9.77851 4.69816 10.5344C3.47191 11.2904 2.46028 12.3545 1.76184 13.6232C-1.26354 18.9182 0.993134 26.6998 3.89133 30.9798C5.34129 33.0756 7.03575 35.4166 9.25316 35.3336C11.4229 35.2427 12.2332 33.9349 14.8525 33.9349C17.4473 33.9349 18.2076 35.3336 20.4699 35.2808C22.7982 35.2427 24.2651 33.1757 25.6642 31.0601C26.706 29.5668 27.5076 27.9163 28.0394 26.1699C26.6868 25.5916 25.5324 24.6235 24.7204 23.3865C23.9083 22.1494 23.4745 20.6981 23.4729 19.2134ZM19.1998 6.42098C20.4693 4.88046 21.0947 2.90039 20.9433 0.901267C19.0038 1.10718 17.2122 2.04419 15.9256 3.5256C15.2965 4.24931 14.8147 5.09126 14.5077 6.00332C14.2007 6.91537 14.0746 7.87964 14.1365 8.84101C15.1066 8.85111 16.0663 8.63857 16.9434 8.21938C17.8204 7.80019 18.5919 7.18528 19.1998 6.42098ZM50.9006 30.028H43.4961L41.7179 35.3355H38.5815L45.5951 15.6988H48.8535L55.867 35.3355H52.6772L50.9006 30.028ZM44.2629 27.5787H50.1322L47.2388 18.965H47.1578L44.2629 27.5787ZM71.0135 28.178C71.0135 32.6269 68.6579 35.4852 65.1031 35.4852C64.2026 35.5329 63.307 35.3232 62.5189 34.8802C61.7308 34.4372 61.082 33.7788 60.6469 32.9804H60.5796V40.0717H57.6725V21.0188H60.4865V23.4001H60.54C60.9952 22.6055 61.6549 21.9506 62.449 21.5049C63.243 21.0592 64.1418 20.8395 65.0496 20.8691C68.6441 20.8691 71.0135 23.7413 71.0135 28.1779V28.178ZM68.0254 28.178C68.0254 25.2795 66.5437 23.3738 64.2828 23.3738C62.0615 23.3738 60.5675 25.3195 60.5675 28.1779C60.5675 31.0626 62.0615 32.9945 64.2828 32.9945C66.5437 32.9945 68.0254 31.1028 68.0254 28.1779V28.178ZM86.6016 28.178C86.6016 32.6269 84.246 35.4852 80.6911 35.4852C79.7907 35.5328 78.8951 35.3232 78.107 34.8802C77.3189 34.4372 76.6702 33.7788 76.2351 32.9804H76.1678V40.0717H73.2607V21.0188H76.0746V23.4001H76.1281C76.5832 22.6055 77.2429 21.9506 78.037 21.5049C78.8311 21.0592 79.7298 20.8395 80.6376 20.8691C84.2323 20.8691 86.6016 23.7413 86.6016 28.1779V28.178ZM83.6136 28.178C83.6136 25.2795 82.1317 23.3738 79.8708 23.3738C77.6495 23.3738 76.1556 25.3195 76.1556 28.1779C76.1556 31.0626 77.6495 32.9945 79.8708 32.9945C82.1317 32.9945 83.6136 31.1028 83.6136 28.1779V28.178ZM96.9041 29.8643C97.1195 31.8115 98.9909 33.0902 101.548 33.0902C103.998 33.0902 105.761 31.8115 105.761 30.0557C105.761 28.5314 104.698 27.6189 102.181 26.9935L99.6629 26.3804C96.096 25.5094 94.44 23.8231 94.44 21.0866C94.44 17.6985 97.3609 15.3715 101.508 15.3715C105.613 15.3715 108.427 17.6985 108.522 21.0866H105.587C105.411 19.1271 103.809 17.9441 101.467 17.9441C99.1253 17.9441 97.5228 19.141 97.5228 20.8828C97.5228 22.2712 98.5463 23.0881 101.05 23.7134L103.19 24.2447C107.176 25.1974 108.832 26.8159 108.832 29.688C108.832 33.3619 105.937 35.6628 101.333 35.6628C97.0246 35.6628 94.1161 33.4158 93.9282 29.8642L96.9041 29.8643ZM115.106 17.6309V21.0188H117.799V23.346H115.106V31.2386C115.106 32.4648 115.645 33.0361 116.829 33.0361C117.149 33.0305 117.468 33.0078 117.785 32.9681V35.2816C117.253 35.382 116.712 35.4275 116.171 35.4172C113.303 35.4172 112.185 34.3287 112.185 31.552V23.346H110.126V21.0188H112.185V17.6309H115.106ZM119.359 28.178C119.359 23.6733 121.983 20.8428 126.076 20.8428C130.182 20.8428 132.795 23.6733 132.795 28.178C132.795 32.6949 130.196 35.5131 126.076 35.5131C121.958 35.5131 119.359 32.6949 119.359 28.178ZM129.833 28.178C129.833 25.088 128.432 23.2641 126.076 23.2641C123.72 23.2641 122.321 25.1017 122.321 28.178C122.321 31.2804 123.72 33.0902 126.076 33.0902C128.432 33.0902 129.833 31.2804 129.833 28.178ZM135.191 21.0188H137.964V23.4556H138.031C138.219 22.6945 138.66 22.022 139.281 21.5509C139.901 21.0799 140.663 20.8391 141.438 20.8691C141.773 20.8679 142.107 20.9046 142.434 20.9786V23.7274C142.011 23.5968 141.57 23.5368 141.128 23.5498C140.706 23.5325 140.285 23.6078 139.894 23.7705C139.503 23.9332 139.152 24.1794 138.864 24.4924C138.576 24.8053 138.359 25.1775 138.227 25.5834C138.094 25.9892 138.051 26.4192 138.099 26.8437V35.3355H135.191V21.0188ZM155.838 31.1305C155.447 33.7295 152.943 35.5131 149.739 35.5131C145.619 35.5131 143.062 32.7227 143.062 28.2459C143.062 23.7553 145.633 20.8428 149.617 20.8428C153.536 20.8428 156 23.5638 156 27.9046V28.9114H145.997V29.089C145.95 29.6159 146.016 30.1467 146.188 30.6461C146.36 31.1456 146.636 31.6022 146.996 31.9858C147.356 32.3693 147.793 32.671 148.278 32.8707C148.763 33.0705 149.284 33.1637 149.806 33.1443C150.493 33.2094 151.183 33.0485 151.772 32.6857C152.362 32.3229 152.819 31.7774 153.077 31.1305H155.838ZM146.01 26.8576H153.091C153.117 26.3839 153.046 25.9098 152.882 25.4651C152.718 25.0204 152.466 24.6147 152.139 24.2735C151.813 23.9323 151.421 23.663 150.987 23.4823C150.553 23.3017 150.086 23.2137 149.617 23.2239C149.144 23.2211 148.674 23.3131 148.236 23.4945C147.798 23.676 147.4 23.9433 147.065 24.2811C146.729 24.619 146.464 25.0206 146.283 25.4628C146.102 25.905 146.009 26.3791 146.01 26.8576ZM43.8986 0.918187C44.5081 0.873966 45.1197 0.967038 45.6892 1.19069C46.2588 1.41434 46.7722 1.763 47.1924 2.21151C47.6125 2.66002 47.929 3.19721 48.1189 3.78431C48.3088 4.37142 48.3674 4.99382 48.2905 5.6066C48.2905 8.62089 46.6788 10.3537 43.8986 10.3537H40.527V0.918029L43.8986 0.918187ZM41.9768 9.01922H43.7367C44.1722 9.04551 44.608 8.97331 45.0124 8.80788C45.4168 8.64244 45.7797 8.38793 46.0745 8.06287C46.3694 7.73781 46.5888 7.35039 46.7168 6.92879C46.8449 6.5072 46.8783 6.06205 46.8148 5.62574C46.8737 5.19115 46.8369 4.74875 46.7069 4.33024C46.5769 3.91174 46.3569 3.52748 46.0627 3.205C45.7685 2.88253 45.4075 2.62982 45.0053 2.46498C44.6032 2.30014 44.1699 2.22725 43.7367 2.25154H41.9768V9.01922ZM49.9282 6.79021C49.8839 6.32227 49.9369 5.85014 50.0836 5.4041C50.2304 4.95806 50.4678 4.54796 50.7806 4.20009C51.0934 3.85223 51.4746 3.57429 51.8999 3.38409C52.3251 3.1939 52.785 3.09565 53.25 3.09565C53.715 3.09565 54.1749 3.1939 54.6002 3.38409C55.0254 3.57429 55.4067 3.85223 55.7195 4.20009C56.0322 4.54796 56.2696 4.95806 56.4164 5.4041C56.5632 5.85014 56.6161 6.32227 56.5718 6.79021C56.6171 7.2587 56.5649 7.73157 56.4185 8.17843C56.2722 8.6253 56.0349 9.03626 55.7221 9.38491C55.4092 9.73355 55.0277 10.0122 54.6019 10.2028C54.1762 10.3935 53.7157 10.492 53.25 10.492C52.7844 10.492 52.3239 10.3935 51.8981 10.2028C51.4724 10.0122 51.0908 9.73355 50.7779 9.38491C50.4651 9.03626 50.2279 8.6253 50.0815 8.17843C49.9352 7.73157 49.8829 7.2587 49.9282 6.79021ZM55.142 6.79021C55.142 5.2467 54.4561 4.34409 53.2524 4.34409C52.0439 4.34409 51.3642 5.2467 51.3642 6.79021C51.3642 8.34606 52.0441 9.24171 53.2524 9.24171C54.4561 9.24171 55.142 8.33989 55.142 6.79021ZM65.4033 10.3535H63.961L62.5053 5.10928H62.3953L60.9456 10.3535H59.5173L57.5756 3.2329H58.9856L60.2475 8.66627H60.3514L61.7996 3.2329H63.1332L64.5814 8.66627H64.6914L65.9471 3.2329H67.3373L65.4033 10.3535ZM68.9702 3.23306H70.3085V4.36417H70.4124C70.5886 3.95787 70.8858 3.61727 71.2626 3.38986C71.6395 3.16244 72.0771 3.05954 72.5145 3.09549C72.8572 3.06945 73.2014 3.1217 73.5214 3.24835C73.8415 3.37501 74.1292 3.57284 74.3634 3.82718C74.5975 4.08152 74.7721 4.38586 74.8741 4.71764C74.9761 5.04943 75.0029 5.40016 74.9526 5.74386V10.3534H73.5624V6.09681C73.5624 4.95257 73.0705 4.38346 72.0424 4.38346C71.8097 4.37252 71.5774 4.41257 71.3615 4.50086C71.1455 4.58915 70.951 4.72359 70.7912 4.89498C70.6315 5.06636 70.5103 5.27063 70.4359 5.49379C70.3616 5.71696 70.3358 5.95373 70.3604 6.18789V10.3535H68.9702V3.23306ZM77.1677 0.453283H78.5577V10.3535H77.1677V0.453283ZM80.4903 6.79021C80.446 6.32221 80.4989 5.85002 80.6458 5.40391C80.7926 4.95781 81.03 4.54765 81.3428 4.19974C81.6556 3.85183 82.0369 3.57385 82.4622 3.38363C82.8875 3.19341 83.3475 3.09515 83.8126 3.09515C84.2777 3.09515 84.7376 3.19341 85.1629 3.38363C85.5882 3.57385 85.9695 3.85183 86.2823 4.19974C86.5952 4.54765 86.8326 4.95781 86.9794 5.40391C87.1262 5.85002 87.1792 6.32221 87.1349 6.79021C87.1799 7.25862 87.1275 7.73138 86.981 8.1781C86.8345 8.62482 86.5972 9.03562 86.2843 9.38412C85.9715 9.73262 85.5899 10.0111 85.1642 10.2017C84.7385 10.3922 84.2781 10.4907 83.8126 10.4907C83.347 10.4907 82.8866 10.3922 82.4609 10.2017C82.0352 10.0111 81.6537 9.73262 81.3408 9.38412C81.0279 9.03562 80.7906 8.62482 80.6442 8.1781C80.4977 7.73138 80.4453 7.25862 80.4903 6.79021ZM85.7041 6.79021C85.7041 5.2467 85.0182 4.34409 83.8145 4.34409C82.606 4.34409 81.9263 5.2467 81.9263 6.79021C81.9263 8.34606 82.6062 9.24171 83.8145 9.24171C85.0182 9.24171 85.7041 8.33989 85.7041 6.79021ZM88.5983 8.33989C88.5983 7.05809 89.5423 6.31914 91.2182 6.21414L93.1262 6.10298V5.48832C93.1262 4.73625 92.6343 4.31167 91.6842 4.31167C90.9081 4.31167 90.3703 4.59963 90.2161 5.10311H88.8701C89.0122 3.87997 90.1504 3.09565 91.7483 3.09565C93.5143 3.09565 94.5103 3.98434 94.5103 5.48832V10.3535H93.172V9.35288H93.062C92.8388 9.71181 92.5253 10.0044 92.1536 10.2008C91.7819 10.3973 91.3653 10.4904 90.9463 10.4709C90.6506 10.5019 90.3517 10.4701 90.069 10.3772C89.7862 10.2844 89.5258 10.1327 89.3046 9.93196C89.0834 9.73119 88.9062 9.48579 88.7846 9.21157C88.6629 8.93736 88.5994 8.64042 88.5983 8.33989ZM93.1262 7.7314V7.13604L91.4061 7.24721C90.436 7.31283 89.996 7.64649 89.996 8.27411C89.996 8.91501 90.546 9.28804 91.3022 9.28804C91.5238 9.31072 91.7476 9.28811 91.9604 9.22155C92.1731 9.15499 92.3705 9.04585 92.5406 8.90061C92.7108 8.75538 92.8503 8.57702 92.9509 8.37616C93.0515 8.17529 93.1111 7.95603 93.1262 7.7314ZM96.3374 6.79021C96.3374 4.54017 97.4815 3.11494 99.2612 3.11494C99.7015 3.09442 100.138 3.201 100.521 3.42222C100.903 3.64343 101.216 3.97015 101.421 4.36417H101.525V0.453125H102.915V10.3534H101.583V9.22827H101.473C101.252 9.61964 100.929 9.94229 100.539 10.1613C100.149 10.3803 99.7071 10.4873 99.2614 10.4707C97.4693 10.4707 96.3374 9.04531 96.3374 6.79005V6.79021ZM97.7734 6.79021C97.7734 8.30036 98.4777 9.20929 99.6553 9.20929C100.827 9.20929 101.551 8.28739 101.551 6.79622C101.551 5.31232 100.819 4.3773 99.6553 4.3773C98.4852 4.3773 97.7734 5.29224 97.7734 6.79021ZM108.667 6.79021C108.623 6.32227 108.676 5.85014 108.822 5.4041C108.969 4.95806 109.207 4.54796 109.519 4.20009C109.832 3.85223 110.213 3.57429 110.639 3.38409C111.064 3.1939 111.524 3.09565 111.989 3.09565C112.454 3.09565 112.914 3.1939 113.339 3.38409C113.764 3.57429 114.145 3.85223 114.458 4.20009C114.771 4.54796 115.008 4.95806 115.155 5.4041C115.302 5.85014 115.355 6.32227 115.311 6.79021C115.356 7.2587 115.304 7.73157 115.157 8.17843C115.011 8.6253 114.774 9.03626 114.461 9.38491C114.148 9.73355 113.766 10.0122 113.341 10.2028C112.915 10.3935 112.454 10.492 111.989 10.492C111.523 10.492 111.063 10.3935 110.637 10.2028C110.211 10.0122 109.83 9.73355 109.517 9.38491C109.204 9.03626 108.967 8.6253 108.82 8.17843C108.674 7.73157 108.622 7.2587 108.667 6.79021ZM113.881 6.79021C113.881 5.2467 113.195 4.34409 111.991 4.34409C110.783 4.34409 110.103 5.2467 110.103 6.79021C110.103 8.34606 110.783 9.24171 111.991 9.24171C113.195 9.24171 113.881 8.33989 113.881 6.79021ZM117.176 3.23306H118.514V4.36417H118.618C118.794 3.95787 119.091 3.61727 119.468 3.38986C119.845 3.16244 120.283 3.05954 120.72 3.09549C121.063 3.06945 121.407 3.1217 121.727 3.24835C122.047 3.37501 122.335 3.57284 122.569 3.82718C122.803 4.08152 122.978 4.38586 123.08 4.71764C123.182 5.04943 123.209 5.40016 123.158 5.74386V10.3534H121.768V6.09681C121.768 4.95257 121.276 4.38346 120.248 4.38346C120.015 4.37252 119.783 4.41257 119.567 4.50086C119.351 4.58915 119.157 4.72359 118.997 4.89498C118.837 5.06636 118.716 5.27063 118.642 5.49379C118.567 5.71696 118.541 5.95373 118.566 6.18789V10.3535H117.176L117.176 3.23306ZM131.013 1.46026V3.26548H132.54V4.44909H131.013V8.11044C131.013 8.85635 131.317 9.18304 132.009 9.18304C132.187 9.18242 132.364 9.17154 132.539 9.15047V10.3211C132.29 10.3663 132.037 10.3903 131.783 10.3929C130.237 10.3929 129.622 9.84308 129.622 8.47035V4.44909H128.504V3.26532H129.622V1.46042L131.013 1.46026ZM134.438 0.453283H135.816V4.3773H135.926C136.111 3.96721 136.416 3.62469 136.801 3.39642C137.185 3.16814 137.63 3.06522 138.074 3.10166C138.415 3.0829 138.756 3.14044 139.072 3.27018C139.389 3.39992 139.673 3.59866 139.905 3.85222C140.136 4.10578 140.31 4.40791 140.413 4.73705C140.516 5.0662 140.546 5.41424 140.5 5.75635V10.3535H139.108V6.10298C139.108 4.96554 138.584 4.38963 137.602 4.38963C137.363 4.36984 137.123 4.40305 136.898 4.48695C136.673 4.57085 136.469 4.7034 136.3 4.87535C136.131 5.04729 136.001 5.25447 135.92 5.48239C135.839 5.71031 135.807 5.95346 135.829 6.19485V10.3535H134.438V0.453283ZM148.606 8.43082C148.417 9.08162 148.008 9.64457 147.45 10.0212C146.892 10.3978 146.221 10.5641 145.554 10.4909C145.089 10.5033 144.628 10.4135 144.202 10.2276C143.776 10.0418 143.395 9.76441 143.085 9.41472C142.775 9.06504 142.545 8.65143 142.409 8.20262C142.274 7.75381 142.236 7.28054 142.3 6.81567C142.238 6.34935 142.276 5.87505 142.411 5.42487C142.546 4.9747 142.776 4.55916 143.084 4.2064C143.392 3.85364 143.771 3.57189 144.196 3.38022C144.621 3.18856 145.082 3.09145 145.547 3.09549C147.507 3.09549 148.69 4.44909 148.69 6.68505V7.17542H143.716V7.25417C143.694 7.51547 143.727 7.77848 143.811 8.02635C143.896 8.27422 144.031 8.50147 144.207 8.69352C144.384 8.88558 144.598 9.03821 144.837 9.14163C145.075 9.24504 145.332 9.29696 145.592 9.29405C145.924 9.33442 146.261 9.2739 146.56 9.12018C146.858 8.96647 147.104 8.72651 147.268 8.43082H148.606ZM143.716 6.13618H147.274C147.291 5.89721 147.259 5.65717 147.179 5.43149C147.1 5.20581 146.974 4.99949 146.811 4.82577C146.648 4.65205 146.45 4.51479 146.231 4.42279C146.012 4.33079 145.777 4.2861 145.54 4.29159C145.299 4.28853 145.061 4.33416 144.838 4.42578C144.615 4.51741 144.413 4.65318 144.243 4.82509C144.073 4.997 143.939 5.20157 143.848 5.42674C143.758 5.65192 143.713 5.89314 143.716 6.13618Z" fill="white"/>
</svg>
