<svg width="159" height="38" viewBox="0 0 159 38" fill="none" xmlns="http://www.w3.org/2000/svg">
<path d="M51.5107 5.20377C51.5107 6.3456 51.1705 7.25487 50.4893 7.93316C49.7154 8.73971 48.7069 9.14329 47.467 9.14329C46.2797 9.14329 45.2702 8.73444 44.4401 7.91558C43.6084 7.09733 43.1934 6.08265 43.1934 4.87203C43.1934 3.66086 43.6084 2.64679 44.4401 1.82787C45.2702 1.00968 46.2797 0.60022 47.467 0.60022C48.0562 0.60022 48.6202 0.714759 49.1558 0.943163C49.6913 1.17212 50.1208 1.47604 50.4422 1.85666L49.7191 2.57586C49.1745 1.92905 48.4247 1.6059 47.467 1.6059C46.6012 1.6059 45.8524 1.90835 45.2205 2.51363C44.5884 3.11953 44.2725 3.90525 44.2725 4.87203C44.2725 5.83888 44.5884 6.62454 45.2205 7.23049C45.8524 7.83577 46.6011 8.13817 47.467 8.13817C48.3856 8.13817 49.1515 7.83412 49.7647 7.22516C50.1627 6.82844 50.3928 6.277 50.4544 5.56888H47.467V4.58667H51.4533C51.4918 4.80025 51.5106 5.00519 51.5106 5.20377" fill="white"/>
<path d="M51.511 5.20445H51.3739C51.3728 6.32026 51.0449 7.1869 50.3926 7.83751L50.3911 7.83861L50.3905 7.83972C49.6413 8.61846 48.6782 9.00606 47.4673 9.00771C46.3117 9.00606 45.3444 8.61423 44.5367 7.81993C43.7308 7.02403 43.3323 6.05241 43.3307 4.87272C43.3323 3.69247 43.7308 2.7214 44.5367 1.92605C45.3444 1.1312 46.3117 0.738822 47.4673 0.737168C48.0388 0.737168 48.5829 0.848033 49.1019 1.0689C49.6213 1.29149 50.0317 1.58317 50.3375 1.94528L50.4424 1.85733L50.3455 1.76098L49.6225 2.48068L49.7193 2.57654L49.825 2.48932C49.255 1.81047 48.455 1.46826 47.4673 1.47028C46.5693 1.46918 45.7793 1.78817 45.1258 2.41643C44.4661 3.0467 44.1346 3.87665 44.1357 4.87272C44.1346 5.86884 44.4661 6.69873 45.1258 7.32906C45.7793 7.95732 46.5693 8.27625 47.4673 8.27515C48.4163 8.2768 49.2251 7.95677 49.8619 7.3222C50.2871 6.89835 50.5282 6.31126 50.5914 5.58127L50.6041 5.43328H47.6044V4.72363H51.4536V4.58735L51.3186 4.6113C51.3561 4.81796 51.3738 5.01433 51.3738 5.20445H51.648C51.648 4.9973 51.6287 4.78439 51.5885 4.56297L51.5682 4.45106H47.3303V5.70585H50.4547V5.56957L50.3182 5.55787C50.2577 6.24364 50.0381 6.76004 49.668 7.12957C49.0789 7.71299 48.3559 8.00093 47.4673 8.00258C46.6335 8.00148 45.9261 7.71611 45.3161 7.13318C44.712 6.55234 44.4115 5.81078 44.4099 4.87272C44.4115 3.93466 44.712 3.19309 45.3161 2.61225C45.9261 2.02932 46.6335 1.74395 47.4673 1.74285C48.3945 1.74505 49.0945 2.04953 49.6146 2.66443L49.711 2.77836L50.5394 1.95374L50.6283 1.86541L50.5474 1.76998C50.2106 1.37081 49.7618 1.05396 49.2101 0.818755C48.6574 0.582816 48.0742 0.464602 47.4673 0.464602C46.2485 0.46356 45.1966 0.889439 44.3435 1.73225C43.4871 2.57341 43.0555 3.63073 43.0566 4.87272C43.0555 6.11415 43.4871 7.17208 44.344 8.01373C45.1966 8.85599 46.2485 9.28138 47.4673 9.28028C48.7367 9.28138 49.7896 8.8623 50.5887 8.02806L50.4895 7.93386L50.5865 8.03027C51.2967 7.32484 51.649 6.3719 51.6481 5.20445H51.511H51.511ZM57.8305 1.78867H54.0843V4.38142H57.4627V5.36401H54.0843V7.95677H57.8305V8.96134H53.0282V0.784087H57.8305V1.78867Z" fill="white"/>
<path d="M57.8301 1.78941V1.65313H53.9467V4.51842H57.3251V5.22806L53.9467 5.22843V8.09372H57.6929V8.82572H53.1648V0.921123H57.6929V1.78941H57.8301V1.65313V1.78941H57.9671V0.64856H52.8906V9.09829H57.9671V7.82116H54.2209V5.501H57.5993V4.24585H54.2209V1.92569H57.9671V1.78941H57.8301ZM62.2875 8.96207H61.2298V1.78935H58.9322V0.78478H64.5852V1.78935H62.2875V8.96194" fill="white"/>
<path d="M62.2873 8.96209V8.82574H61.3667V1.65313H59.0691V0.921186H64.4478V1.65313H62.1503V8.96203H62.2873V8.82574V8.96203H62.4245V1.92569H64.722V0.64856H58.7949V1.92563H61.0925V9.09825H62.4245V8.96196H62.2873V8.96209ZM68.675 8.96209V0.784781H69.7317V8.96196H68.675" fill="white"/>
<path d="M68.6752 8.96207H68.8123V0.921123H69.5947V8.82572H68.6752V8.96201H68.8123H68.6752V9.09829H69.8689V0.64856H68.5381V9.09829H68.6752V8.96201V8.96207ZM74.4206 8.96207H73.3629V1.78935H71.0654V0.78478H76.7182V1.78935H74.4206V8.96194" fill="white"/>
<path d="M74.421 8.96071V8.82436H73.5004V1.65171H71.2029V0.919765H76.5815V1.65171H74.2839V8.96064H74.421V8.82436V8.96064H74.5581V1.92428H76.8557V0.647137H70.9287V1.92422H73.2261V9.09687H74.5581V8.96058H74.421V8.96071ZM82.1685 7.21935C82.7774 7.83204 83.5224 8.13811 84.4034 8.13811C85.2844 8.13811 86.0299 7.83204 86.6378 7.21935C87.2472 6.60659 87.5526 5.82332 87.5526 4.87203C87.5526 3.92081 87.2472 3.13753 86.6378 2.52478C86.0299 1.91203 85.2844 1.6059 84.4034 1.6059C83.5224 1.6059 82.7774 1.91203 82.1685 2.52478C81.5606 3.13753 81.2554 3.92075 81.2554 4.87203C81.2554 5.82332 81.5606 6.60659 82.1685 7.21935ZM87.4197 7.90389C86.6109 8.73059 85.6052 9.14329 84.4034 9.14329C83.2005 9.14329 82.1952 8.73059 81.3882 7.90389C80.5789 7.0781 80.1762 6.06728 80.1762 4.87203C80.1762 3.67678 80.5789 2.66578 81.3882 1.84018C82.1952 1.01329 83.2005 0.60022 84.4034 0.60022C85.5988 0.60022 86.6019 1.0155 87.4144 1.84551C88.2257 2.67546 88.6317 3.68426 88.6317 4.87203C88.6317 6.06728 88.2267 7.0781 87.4197 7.90389Z" fill="white"/>
<path d="M82.1684 7.22004L82.0709 7.31584C82.7024 7.95309 83.4902 8.2768 84.4034 8.27515C85.3159 8.2768 86.1048 7.95309 86.7352 7.31584C87.3709 6.67797 87.6905 5.85279 87.6896 4.87272C87.6905 3.8927 87.3709 3.06746 86.7352 2.4296C86.1048 1.79234 85.3159 1.46869 84.4034 1.47028C83.4902 1.46869 82.7024 1.79234 82.0709 2.4296C81.4368 3.06746 81.1165 3.8927 81.1182 4.87272C81.1165 5.85273 81.4368 6.67797 82.0709 7.31584L82.1684 7.22004L82.266 7.12418C81.6843 6.53587 81.3935 5.79583 81.3924 4.87272C81.3935 3.94966 81.6843 3.20963 82.2659 2.62125C82.8528 2.03306 83.5539 1.7445 84.4034 1.74291C85.2522 1.7445 85.9548 2.03306 86.5403 2.62125C87.1229 3.20963 87.4137 3.94966 87.4148 4.87272C87.4137 5.79577 87.1229 6.53587 86.5403 7.12418C85.9548 7.71244 85.2522 8.00093 84.4034 8.00252C83.5539 8.00093 82.8528 7.71244 82.2659 7.12418L82.1684 7.22004ZM87.4196 7.90458L87.3216 7.80989C86.5354 8.61056 85.5741 9.00612 84.4034 9.00771C83.2321 9.00606 82.2707 8.61056 81.486 7.80989L81.4823 7.8056L81.486 7.80989C80.7015 7.00646 80.3144 6.03759 80.3133 4.87272C80.3144 3.70784 80.7015 2.73898 81.486 1.93561C82.2707 1.13487 83.232 0.738824 84.4034 0.737232C85.5665 0.738824 86.5257 1.13653 87.3162 1.94143C88.1035 2.74853 88.4929 3.71587 88.4945 4.87272C88.4929 6.03759 88.1046 7.00646 87.3216 7.80989L87.4196 7.90458L87.5182 7.99927C88.3493 7.15076 88.7697 6.09823 88.7688 4.87272C88.7697 3.65419 88.3477 2.60379 87.5127 1.75149C86.6773 0.89581 85.6309 0.463133 84.4034 0.464603C83.1694 0.463133 82.1197 0.893789 81.2896 1.74616V1.74555C80.4568 2.59467 80.038 3.64721 80.0391 4.87272C80.038 6.09823 80.4568 7.15076 81.2896 7.99983L81.2933 8.00368L81.2896 7.99927C82.1197 8.85164 83.1694 9.28138 84.4034 9.28028C85.6367 9.28138 86.6864 8.85164 87.5182 7.99927L87.4196 7.90458ZM90.1151 8.96141V0.784027H91.4016L95.3995 7.14537H95.445L95.3995 5.56951V0.784027H96.4573V8.96128H95.3539L91.1712 2.29166H91.1257L91.1712 3.86808V8.96128H90.1151" fill="white"/>
<path d="M90.1145 8.96214H90.2517V0.921126H91.3249L95.3229 7.28246H95.5853L95.536 5.56829V0.921187H96.3196V8.8258H95.4295L91.2468 2.15619H90.9844L91.0336 3.87109V8.8258H90.1146V8.96208H90.2517H90.1146V9.09836H91.3078V3.86674L91.2623 2.2888L91.1252 2.29247V2.42875H91.1707V2.29247L91.0544 2.36493L95.2774 9.09836H96.5938V0.64856H95.2619V5.5719L95.3074 7.14985L95.4445 7.14617V7.00989H95.399V7.14617L95.5152 7.07384L91.4769 0.64856H89.9775V9.09836H90.1146V8.96208L90.1145 8.96214ZM133.111 32.131H135.67V15.0934H133.111L133.111 32.131ZM156.154 21.2308L153.222 28.6174H153.134L150.09 21.2307H147.334L151.899 31.5549L149.296 37.2976H151.966L158.999 21.2307L156.154 21.2308ZM141.646 30.1959C140.807 30.1959 139.639 29.7795 139.639 28.7489C139.639 27.4338 141.095 26.9297 142.351 26.9297C143.476 26.9297 144.004 27.1708 144.688 27.5C144.49 29.0778 143.123 30.1959 141.646 30.1959ZM141.954 20.858C140.102 20.858 138.184 21.6692 137.39 23.4667L139.661 24.4089C140.146 23.4667 141.05 23.1594 141.998 23.1594C143.321 23.1594 144.666 23.9489 144.688 25.3518V25.5269C144.225 25.2639 143.234 24.8694 142.02 24.8694C139.573 24.8694 137.08 26.2062 137.08 28.7051C137.08 30.9848 139.088 32.4536 141.336 32.4536C143.057 32.4536 144.004 31.6864 144.601 30.7878H144.688V32.1028H147.158V25.5705C147.158 22.5462 144.887 20.858 141.954 20.858ZM126.144 23.3047H122.505V17.4647H126.144C128.056 17.4647 129.142 19.0388 129.142 20.3846C129.142 21.705 128.056 23.3047 126.144 23.3047ZM126.078 15.0934H119.948V32.131H122.505V25.676H126.078C128.913 25.676 131.7 23.6353 131.7 20.3846C131.7 17.134 128.913 15.0934 126.078 15.0934ZM92.6504 30.199C90.883 30.199 89.4033 28.728 89.4033 26.7077C89.4033 24.6661 90.883 23.1728 92.6504 23.1728C94.3954 23.1728 95.7648 24.6661 95.7648 26.7077C95.7648 28.728 94.3954 30.199 92.6505 30.199H92.6504ZM95.588 22.1847H95.4996C94.9255 21.5042 93.8206 20.8895 92.4293 20.8895C89.5136 20.8895 86.8412 23.4363 86.8412 26.7077C86.8412 29.9573 89.5136 32.4824 92.4293 32.4824C93.8206 32.4824 94.9255 31.8674 95.4996 31.1652H95.588V31.9995C95.588 34.2174 94.3954 35.403 92.4737 35.403C90.9055 35.403 89.9336 34.2828 89.5356 33.3389L87.3051 34.261C87.9456 35.7979 89.6465 37.6863 92.4737 37.6863C95.4777 37.6863 98.0178 35.9294 98.0178 31.6481V21.2408H95.588V22.1847ZM99.7847 32.131H102.347V15.0928H99.7847V32.131ZM106.124 26.5102C106.058 24.2704 107.869 23.129 109.172 23.129C110.189 23.129 111.05 23.6337 111.336 24.359L106.124 26.5102ZM114.076 24.5782C113.59 23.2823 112.11 20.8895 109.084 20.8895C106.08 20.8895 103.584 23.2387 103.584 26.6859C103.584 29.9355 106.058 32.4824 109.371 32.4824C112.044 32.4824 113.59 30.8575 114.231 29.9135L112.243 28.5959C111.58 29.5622 110.674 30.199 109.371 30.199C108.068 30.199 107.14 29.6059 106.543 28.4426L114.34 25.2367L114.076 24.5782ZM51.9563 22.668V25.127H57.8758C57.6991 26.5102 57.2352 27.5201 56.5283 28.2228C55.6672 29.0794 54.3197 30.0233 51.9563 30.0233C48.3117 30.0233 45.4625 27.1032 45.4625 23.4804C45.4625 19.8576 48.3117 16.9371 51.9563 16.9371C53.9223 16.9371 55.3576 17.7058 56.4179 18.6938L58.1629 16.9594C56.6831 15.5539 54.7171 14.4781 51.9563 14.4781C46.9642 14.4781 42.7676 18.5182 42.7676 23.4804C42.7676 28.4426 46.9642 32.4824 51.9563 32.4824C54.6512 32.4824 56.6831 31.6045 58.2732 29.9573C59.9078 28.3325 60.4161 26.0492 60.4161 24.205C60.4161 23.6337 60.3721 23.1072 60.2832 22.668H51.9563ZM67.1459 30.199C65.3785 30.199 63.8544 28.7498 63.8544 26.6859C63.8544 24.6 65.3785 23.1728 67.1459 23.1728C68.9127 23.1728 70.4368 24.6 70.4368 26.6859C70.4368 28.7498 68.9127 30.199 67.1459 30.199ZM67.1459 20.8895C63.9207 20.8895 61.2921 23.3265 61.2921 26.6859C61.2921 30.0233 63.9207 32.4824 67.1459 32.4824C70.3705 32.4824 72.999 30.0233 72.999 26.6859C72.999 23.3265 70.3705 20.8895 67.1459 20.8895ZM79.9147 30.199C78.148 30.199 76.6236 28.7498 76.6236 26.6859C76.6236 24.6 78.148 23.1728 79.9147 23.1728C81.6816 23.1728 83.2057 24.6 83.2057 26.6859C83.2057 28.7498 81.6816 30.199 79.9147 30.199H79.9147ZM79.9147 20.8895C76.6896 20.8895 74.0616 23.3265 74.0616 26.6859C74.0616 30.0233 76.6896 32.4824 79.9147 32.4824C83.1394 32.4824 85.768 30.0233 85.768 26.6859C85.768 23.3265 83.1394 20.8895 79.9147 20.8895H79.9147Z" fill="white"/>
<path d="M0.905645 1.61612C0.445541 2.02877 0.170898 2.71704 0.170898 3.63066V3.42413V33.5724V33.3739C0.170898 34.2176 0.406474 34.8692 0.805416 35.2888L0.90725 35.3857V35.3861C1.23016 35.6758 1.64422 35.8296 2.11876 35.8291C2.58245 35.8291 3.10415 35.6822 3.65473 35.3719L23.5557 24.1318L30.3915 20.2705C31.2597 19.7803 31.747 19.1478 31.8285 18.5035V18.5009C31.747 17.8552 31.2597 17.2232 30.3915 16.7329L23.5551 12.8721L3.65479 1.63205C3.10303 1.3212 2.58097 1.17371 2.11605 1.17371C1.64206 1.17371 1.22855 1.32702 0.905768 1.61612H0.905645Z" fill="#20BFF7"/>
<path d="M0.907311 35.3864L0.805416 35.2895C0.406474 34.8699 0.170898 34.2182 0.170898 33.3745V33.5731V3.43221V3.63127C0.170898 2.71765 0.445541 2.02938 0.905645 1.61673L17.8926 18.5021L0.907311 35.3864Z" fill="url(#paint0_linear_105_3620)"/>
<path d="M23.5557 24.1339L17.8926 18.5036L23.5552 12.8742L30.3915 16.735C31.2597 17.2253 31.747 17.8573 31.8285 18.503V18.5056C31.747 19.1498 31.2597 19.7824 30.3915 20.2726L23.5557 24.1338" fill="url(#paint1_linear_105_3620)"/>
<path d="M2.11862 35.8308C1.64413 35.8312 1.23007 35.6774 0.907227 35.3878V35.3874L17.8925 18.5031L23.5556 24.1334L3.65458 35.3735C3.104 35.6839 2.5823 35.8308 2.11862 35.8308Z" fill="url(#paint2_linear_105_3620)"/>
<path d="M17.8923 18.5037L0.905273 1.6183C1.22818 1.3292 1.64169 1.17588 2.11561 1.17588C2.58053 1.17588 3.10266 1.32331 3.65436 1.63422L23.5548 12.8743L17.8922 18.5037" fill="url(#paint3_linear_105_3620)"/>
<path d="M2.11944 36.0297C1.64496 36.0297 1.23034 35.8758 0.907436 35.5862L0.906881 35.5867C0.905552 35.5854 0.904129 35.5841 0.902622 35.583L0.814305 35.4973C0.811527 35.4946 0.808935 35.4915 0.805664 35.4883L0.907498 35.3871C1.2304 35.6767 1.6444 35.8305 2.11901 35.83C2.58263 35.83 3.10433 35.6831 3.65491 35.3727L23.5558 24.1328L23.6833 24.2596L23.5542 24.3324L3.65485 35.5718C3.15309 35.8545 2.67583 36.002 2.24473 36.0265C2.203 36.0286 2.16123 36.0296 2.11944 36.0296" fill="url(#paint4_linear_105_3620)"/>
<path d="M0.805415 35.4884C0.406474 35.0688 0.170898 34.4177 0.170898 33.5734V33.3748C0.170898 34.2186 0.406474 34.8702 0.805415 35.2898L0.907249 35.3867L0.805415 35.4884Z" fill="url(#paint5_linear_105_3620)"/>
<path d="M23.6832 24.2603L23.5557 24.1335L30.3915 20.2722C31.2597 19.782 31.7471 19.1495 31.8285 18.5052C31.8285 18.7417 31.7755 18.978 31.67 19.2081C31.4574 19.6718 31.0311 20.1099 30.3916 20.4713L23.6832 24.2604" fill="url(#paint6_linear_105_3620)"/>
<path d="M31.8281 18.5023C31.7466 17.8566 31.2593 17.2246 30.3911 16.7343L23.5547 12.8735L23.6822 12.7467H23.6828L30.3911 16.5357C31.3482 17.0766 31.8275 17.7894 31.8281 18.5023Z" fill="url(#paint7_linear_105_3620)"/>
<path d="M0.170898 3.63159V3.42334C0.170898 3.34824 0.172935 3.2748 0.176823 3.2035V3.20026C0.176823 3.19928 0.176823 3.19824 0.177194 3.19713V3.18911C0.218483 2.46236 0.445541 1.89547 0.805416 1.51693L0.905645 1.61696C0.445541 2.02967 0.170898 2.71796 0.170898 3.63159Z" fill="url(#paint8_linear_105_3620)"/>
<path d="M23.5553 12.8734L3.65491 1.63325C3.10322 1.3224 2.58115 1.17497 2.11623 1.17497C1.64224 1.17497 1.22874 1.32828 0.905893 1.61738L0.805664 1.5173C0.836965 1.48436 0.869492 1.45259 0.903178 1.42205C0.904227 1.42095 0.905893 1.41985 0.906942 1.41881C1.22726 1.13191 1.63638 0.978596 2.10611 0.97584H2.11623C2.58115 0.97584 3.10322 1.12333 3.65491 1.4343L23.6833 12.7462L23.6828 12.7466L23.5553 12.8734Z" fill="url(#paint9_linear_105_3620)"/>
<defs>
<linearGradient id="paint0_linear_105_3620" x1="11.0266" y1="3.11365" x2="-3.50111" y2="17.7755" gradientUnits="userSpaceOnUse">
<stop stop-color="#00A0FF"/>
<stop offset="0.00657" stop-color="#00A1FF"/>
<stop offset="0.2601" stop-color="#00BEFF"/>
<stop offset="0.5122" stop-color="#00D2FF"/>
<stop offset="0.7604" stop-color="#00DFFF"/>
<stop offset="1" stop-color="#00E3FF"/>
</linearGradient>
<linearGradient id="paint1_linear_105_3620" x1="32.8863" y1="18.4063" x2="-0.288806" y2="18.4063" gradientUnits="userSpaceOnUse">
<stop stop-color="#FFE000"/>
<stop offset="0.4087" stop-color="#FFBD00"/>
<stop offset="0.7754" stop-color="#FFA500"/>
<stop offset="1" stop-color="#FF9C00"/>
</linearGradient>
<linearGradient id="paint2_linear_105_3620" x1="20.549" y1="23.8562" x2="-4.07067" y2="48.5218" gradientUnits="userSpaceOnUse">
<stop stop-color="#FF3A44"/>
<stop offset="1" stop-color="#C31162"/>
</linearGradient>
<linearGradient id="paint3_linear_105_3620" x1="-3.47275" y1="-0.885037" x2="7.49953" y2="10.1246" gradientUnits="userSpaceOnUse">
<stop stop-color="#32A071"/>
<stop offset="0.0685" stop-color="#2DA771"/>
<stop offset="0.4762" stop-color="#15CF74"/>
<stop offset="0.8009" stop-color="#06E775"/>
<stop offset="1" stop-color="#00F076"/>
</linearGradient>
<linearGradient id="paint4_linear_105_3620" x1="20.5369" y1="27.761" x2="0.821496" y2="47.6588" gradientUnits="userSpaceOnUse">
<stop stop-color="#CC2E36"/>
<stop offset="1" stop-color="#9C0E4E"/>
</linearGradient>
<linearGradient id="paint5_linear_105_3620" x1="2.43381" y1="3.11338" x2="-10.3651" y2="16.0305" gradientUnits="userSpaceOnUse">
<stop stop-color="#008DE0"/>
<stop offset="0.00657" stop-color="#008DE0"/>
<stop offset="0.2601" stop-color="#00A7E0"/>
<stop offset="0.5122" stop-color="#00B8E0"/>
<stop offset="0.7604" stop-color="#00C4E0"/>
<stop offset="1" stop-color="#00C7E0"/>
</linearGradient>
<linearGradient id="paint6_linear_105_3620" x1="32.8863" y1="18.504" x2="-0.288834" y2="18.504" gradientUnits="userSpaceOnUse">
<stop stop-color="#E0C500"/>
<stop offset="0.4087" stop-color="#E0A600"/>
<stop offset="0.7754" stop-color="#E09100"/>
<stop offset="1" stop-color="#E08900"/>
</linearGradient>
<linearGradient id="paint7_linear_105_3620" x1="32.8859" y1="18.5037" x2="-0.289134" y2="18.5037" gradientUnits="userSpaceOnUse">
<stop stop-color="#FFE840"/>
<stop offset="0.4087" stop-color="#FFCE40"/>
<stop offset="0.7754" stop-color="#FFBC40"/>
<stop offset="1" stop-color="#FFB540"/>
</linearGradient>
<linearGradient id="paint8_linear_105_3620" x1="2.41981" y1="3.13711" x2="-9.91187" y2="15.0435" gradientUnits="userSpaceOnUse">
<stop stop-color="#40B8FF"/>
<stop offset="0.00657" stop-color="#40B9FF"/>
<stop offset="0.2601" stop-color="#40CEFF"/>
<stop offset="0.5122" stop-color="#40DDFF"/>
<stop offset="0.7604" stop-color="#40E7FF"/>
<stop offset="1" stop-color="#40EAFF"/>
</linearGradient>
<linearGradient id="paint9_linear_105_3620" x1="-3.49694" y1="2.68498" x2="5.30692" y2="11.5703" gradientUnits="userSpaceOnUse">
<stop stop-color="#65B895"/>
<stop offset="0.0685" stop-color="#62BD95"/>
<stop offset="0.4762" stop-color="#50DB97"/>
<stop offset="0.8009" stop-color="#44ED98"/>
<stop offset="1" stop-color="#40F498"/>
</linearGradient>
</defs>
</svg>
