<svg width="39" height="39" viewBox="0 0 39 39" fill="none" xmlns="http://www.w3.org/2000/svg">
<g clip-path="url(#clip0_110_1489)">
<path d="M17.269 4.62507C17.614 4.62507 17.894 4.34507 17.894 4.0001V2.1251C17.894 1.78013 17.614 1.50012 17.269 1.50012C16.924 1.50012 16.644 1.78013 16.644 2.1251V4.0001C16.644 4.34507 16.924 4.62507 17.269 4.62507Z" fill="#32A8C9"/>
<path d="M10.4389 9.00007H12.3014C12.647 9.00007 12.9264 8.72007 12.9264 8.3751C12.9264 8.03013 12.647 7.75012 12.3014 7.75012H10.4389C10.094 7.75012 9.81396 8.03013 9.81396 8.3751C9.81396 8.72007 10.094 9.00007 10.4389 9.00007Z" fill="#32A8C9"/>
<path d="M20.9902 8.3751C20.9902 8.72007 21.2702 9.00007 21.6152 9.00007H23.4777C23.8233 9.00007 24.1027 8.72007 24.1027 8.3751C24.1027 8.03013 23.8233 7.75012 23.4777 7.75012H21.6152C21.2702 7.75005 20.9902 8.03005 20.9902 8.3751Z" fill="#32A8C9"/>
<path d="M20.3737 5.87502C20.5343 5.87502 20.6949 5.81313 20.8168 5.69067L22.0587 4.44065C22.3018 4.19565 22.3005 3.8 22.0555 3.55691C21.8118 3.31382 21.4156 3.31506 21.1718 3.5594L19.9306 4.80942C19.6868 5.05442 19.6881 5.45007 19.9331 5.69316C20.0549 5.81445 20.2143 5.87502 20.3737 5.87502Z" fill="#32A8C9"/>
<path d="M13.1001 5.69043C13.222 5.81355 13.3833 5.87478 13.5432 5.87478C13.7026 5.87478 13.862 5.81479 13.9839 5.6935C14.2288 5.45041 14.2301 5.0541 13.987 4.80976L12.7451 3.55974C12.5014 3.31408 12.1057 3.31284 11.8614 3.55659C11.6164 3.79968 11.6151 4.19533 11.8582 4.44033L13.1001 5.69043Z" fill="#32A8C9"/>
<path d="M30.0651 18.375C29.4876 18.375 28.9495 18.55 28.5026 18.85V18.6875C28.5026 17.1369 27.2407 15.875 25.6901 15.875C25.1126 15.875 24.5745 16.05 24.1276 16.35V16.1874C24.1276 14.6368 22.8657 13.3749 21.3151 13.3749C20.7395 13.3749 20.2032 13.5487 19.7564 13.8474V8.75063C19.7564 7.16501 18.5014 5.875 16.9577 5.875C15.4145 5.875 14.1589 7.16501 14.1589 8.75063L14.1602 21.1032C12.8314 19.1788 10.2058 18.2231 8.19893 19.0063C7.8864 19.1282 7.61768 19.3013 7.4427 19.4213C6.59829 20.0006 6.62143 20.7088 6.63711 20.9563C6.58086 21.2832 6.65835 21.3763 7.40146 22.2644C8.35837 23.4094 10.3496 25.7913 11.6158 28.1475C11.6558 28.2112 12.2565 29.1556 13.1033 30.3019C13.199 30.3394 13.2883 30.3912 13.3583 30.4756C13.6158 30.7855 15.0458 31.7718 15.9002 32.3606C16.5602 32.8156 17.0809 33.175 17.3227 33.3763C17.5877 33.5975 17.6234 33.9919 17.4027 34.2569C17.2789 34.405 17.1014 34.4819 16.9221 34.4819C16.7808 34.4819 16.6396 34.4337 16.5227 34.3368C16.3239 34.1712 15.7733 33.7918 15.1908 33.39C15.0414 33.2868 14.8982 33.1875 14.7576 33.09L14.7526 34.0075C14.7526 36.9468 17.0639 39 20.3739 39H25.9621C28.554 39 30.6252 37.4806 31.1152 35.2187C31.1677 34.9768 31.2227 34.7774 31.277 34.6081C30.397 34.9231 29.5821 35.1499 29.2901 35.2287C29.2358 35.2431 29.1808 35.25 29.1276 35.25C28.8513 35.25 28.5989 35.0662 28.5239 34.7874C28.4345 34.4537 28.632 34.1112 28.9651 34.0212C30.1851 33.6937 31.4333 33.2424 32.2183 32.8699C32.5826 32.055 32.8777 30.9087 32.8777 29.5012V21.1875C32.8776 19.6369 31.6158 18.375 30.0651 18.375Z" fill="#32A8C9"/>
</g>
<defs>
<clipPath id="clip0_110_1489">
<rect width="37.5" height="37.5" fill="white" transform="translate(1 1.5)"/>
</clipPath>
</defs>
</svg>
