<svg width="31" height="31" viewBox="0 0 31 31" fill="none" xmlns="http://www.w3.org/2000/svg">
<path d="M15.5001 11.628C17.6556 11.0855 19.8352 9.68085 19.8352 7.29292L19.7965 3.78612C19.7959 3.68728 19.7649 3.59102 19.7077 3.51041C19.6505 3.42981 19.5699 3.36879 19.4768 3.33565L15.6648 1.96971C15.5584 1.93095 15.4418 1.93095 15.3354 1.96971L11.5235 3.33565C11.4304 3.36879 11.3497 3.42981 11.2925 3.51041C11.2353 3.59101 11.2043 3.68728 11.2038 3.78612L11.165 7.29777C11.165 9.68085 13.3495 11.0904 15.5001 11.628ZM13.6305 6.44043C13.7219 6.34967 13.8455 6.29874 13.9744 6.29874C14.1032 6.29874 14.2268 6.34967 14.3183 6.44043L14.9916 7.11856L16.682 5.42328C16.7732 5.33207 16.8969 5.28083 17.0259 5.28083C17.1549 5.28083 17.2786 5.33207 17.3698 5.42328C17.461 5.51449 17.5123 5.6382 17.5123 5.76719C17.5123 5.89618 17.461 6.01988 17.3698 6.11109L15.3355 8.14544C15.2437 8.23547 15.1202 8.28589 14.9916 8.28589C14.863 8.28589 14.7395 8.23547 14.6477 8.14544L13.6305 7.12825C13.5398 7.03681 13.4888 6.91319 13.4888 6.78435C13.4888 6.65551 13.5397 6.53189 13.6305 6.44043Z" fill="#32A8C9"/>
<path d="M10.1759 24.2183L9.46436 26.1548H21.5912L20.9276 24.2183H10.1759Z" fill="#32A8C9"/>
<path d="M28.99 18.4285C28.8747 17.9901 28.6319 17.5957 28.2925 17.2951C27.3335 16.4959 26.2533 15.5465 25.7254 15.0186H27.256C27.4294 15.0197 27.6012 14.9864 27.7617 14.9208C27.9222 14.8552 28.0681 14.7585 28.191 14.6363C28.314 14.5141 28.4116 14.3687 28.4782 14.2087C28.5448 14.0486 28.579 13.8769 28.579 13.7036C28.579 13.5302 28.5448 13.3585 28.4782 13.1985C28.4116 13.0384 28.314 12.8931 28.191 12.7708C28.0681 12.6486 27.9222 12.5519 27.7617 12.4863C27.6012 12.4207 27.4294 12.3875 27.256 12.3885C26.5294 12.4273 25.178 12.2238 24.5677 12.6888C24.1366 11.6038 23.6184 10.2766 23.2212 9.2498C23.0379 8.80747 22.7273 8.42954 22.3289 8.16395C21.9305 7.89835 21.4622 7.75705 20.9834 7.75797H20.78C20.7483 8.08743 20.68 8.41234 20.5765 8.72672H20.9834C21.2686 8.72438 21.548 8.80696 21.7861 8.96394C22.0241 9.12093 22.2101 9.34521 22.3203 9.60824C22.4462 9.95215 24.466 14.9508 24.5048 15.0186H6.49602C6.53477 14.9508 8.54492 9.9667 8.67567 9.62278C8.78419 9.35647 8.97 9.12877 9.20915 8.96905C9.4483 8.80934 9.72981 8.72493 10.0174 8.72672H10.4194C10.3152 8.41277 10.2486 8.08759 10.2208 7.75797H10.0174C9.53681 7.75762 9.06698 7.90019 8.66764 8.16755C8.26831 8.43492 7.9575 8.815 7.77473 9.25946C7.38239 10.2815 6.86411 11.6038 6.43306 12.6888C5.82759 12.2189 4.45683 12.4321 3.7448 12.3885C3.39858 12.3923 3.06785 12.5326 2.82439 12.7788C2.58093 13.025 2.44438 13.3573 2.44438 13.7035C2.44438 14.0498 2.58093 14.3821 2.82439 14.6283C3.06785 14.8745 3.39858 15.0147 3.7448 15.0186H5.27543C4.74261 15.5514 3.66246 16.5007 2.68405 17.3193C2.3584 17.6164 2.12616 18.0018 2.01561 18.4285C1.87514 18.5496 1.97202 23.4369 1.9478 23.7323C1.94655 24.2037 2.08292 24.6651 2.34019 25.06C2.59745 25.455 2.96442 25.7662 3.39605 25.9555C3.7023 26.0863 4.0318 26.1538 4.3648 26.1541H8.43348L9.38286 23.5676C9.41682 23.4741 9.47871 23.3932 9.56015 23.336C9.6416 23.2789 9.73866 23.2481 9.83817 23.2479H21.274C21.3756 23.2477 21.4746 23.2793 21.5572 23.3384C21.6398 23.3975 21.7017 23.4811 21.7342 23.5773L22.6158 26.1541H26.636C26.969 26.1538 27.2985 26.0863 27.6047 25.9555C28.0364 25.7656 28.4035 25.4544 28.6615 25.0597C28.9194 24.665 29.0572 24.2038 29.0579 23.7323C29.0287 23.4223 29.1208 18.5593 28.99 18.4285ZM9.44098 21.0586C9.40048 21.1365 9.33924 21.2017 9.26402 21.247C9.18881 21.2923 9.10254 21.316 9.01473 21.3153H5.81792C5.17569 21.3151 4.55983 21.0599 4.1057 20.6058C3.65157 20.1516 3.39633 19.5358 3.39609 18.8935C3.39647 18.7652 3.44762 18.6422 3.53838 18.5514C3.62913 18.4607 3.75212 18.4095 3.88047 18.4092H7.72149C7.80075 18.4095 7.87875 18.429 7.94878 18.4662C8.01881 18.5033 8.07877 18.5569 8.12352 18.6223L9.41677 20.5597C9.46667 20.6325 9.49536 20.7176 9.49964 20.8057C9.50392 20.8938 9.48361 20.9814 9.44098 21.0586ZM21.3564 19.1648L20.068 21.1022C20.0232 21.1676 19.9633 21.2212 19.8932 21.2583C19.8232 21.2955 19.7452 21.315 19.6659 21.3153H11.3397C11.2604 21.315 11.1824 21.2955 11.1124 21.2583C11.0424 21.2212 10.9824 21.1676 10.9377 21.1022L9.6444 19.1648C9.59587 19.0917 9.568 19.0069 9.56373 18.9193C9.55947 18.8317 9.57897 18.7445 9.62016 18.6671C9.66136 18.5897 9.72273 18.5248 9.79776 18.4794C9.8728 18.434 9.95872 18.4097 10.0464 18.4091H20.9544C21.042 18.41 21.1277 18.4344 21.2026 18.4799C21.2775 18.5253 21.3387 18.5902 21.3799 18.6675C21.421 18.7448 21.4406 18.8318 21.4364 18.9194C21.4323 19.0069 21.4047 19.0916 21.3564 19.1648ZM25.1829 21.3153H21.9861C21.8989 21.3135 21.8137 21.2885 21.7394 21.2428C21.6651 21.1972 21.6043 21.1325 21.5634 21.0555C21.5224 20.9785 21.5027 20.8919 21.5064 20.8048C21.51 20.7176 21.5368 20.633 21.584 20.5597L22.8773 18.6223C22.922 18.5569 22.982 18.5033 23.052 18.4662C23.1221 18.429 23.2001 18.4095 23.2793 18.4092H27.1203C27.2487 18.4095 27.3717 18.4607 27.4624 18.5514C27.5532 18.6422 27.6043 18.7652 27.6047 18.8935C27.6045 19.5358 27.3492 20.1516 26.8951 20.6058C26.441 21.0599 25.8251 21.3151 25.1829 21.3153Z" fill="#32A8C9"/>
<path d="M2.43018 26.5178V27.607C2.4313 27.9918 2.58468 28.3606 2.85679 28.6327C3.12891 28.9048 3.49765 29.0582 3.88248 29.0593H6.78707C7.1719 29.0582 7.54064 28.9048 7.81276 28.6327C8.08487 28.3606 8.23824 27.9918 8.23937 27.607V27.1229H4.36658C3.67425 27.1251 2.99807 26.9138 2.43018 26.5178Z" fill="#32A8C9"/>
<path d="M22.7622 27.1229V27.607C22.7633 27.9918 22.9167 28.3606 23.1888 28.6327C23.4609 28.9048 23.8297 29.0582 24.2145 29.0593H27.1191C27.5039 29.0582 27.8727 28.9048 28.1448 28.6327C28.4169 28.3606 28.5703 27.9918 28.5714 27.607V26.5178C28.0032 26.9131 27.3272 27.1243 26.635 27.1229H22.7622Z" fill="#32A8C9"/>
</svg>
