<svg width="39" height="39" viewBox="0 0 39 39" fill="none" xmlns="http://www.w3.org/2000/svg">
<g clip-path="url(#clip0_110_1507)">
<path d="M7.08789 27.8572H20.756L18.7886 21.5894H9.05533L7.08789 27.8572Z" fill="#32A8C9"/>
<path d="M26.4578 36.9107L23.5154 35.5178H4.32873L1.81605 36.7088C1.57702 36.8219 1.4227 37.0607 1.41767 37.3251L1.39954 38.2903C1.39596 38.4773 1.46779 38.6579 1.59881 38.7914C1.72982 38.9248 1.90898 39 2.09598 39H26.4577L26.4578 36.9107Z" fill="#32A8C9"/>
<path d="M5.12061 34.125H22.7235L21.1935 29.25H6.65067L5.12061 34.125Z" fill="#32A8C9"/>
<path d="M16.2125 14.6487C15.9433 14.5799 15.6579 14.6595 15.4631 14.8576C14.6098 15.7037 13.234 15.7037 12.3807 14.8576C12.1855 14.663 11.9031 14.584 11.6352 14.6491C11.3674 14.7141 11.1528 14.914 11.0687 15.1766L9.49268 20.1964H18.3512L16.7773 15.1752C16.6959 14.9118 16.4809 14.7114 16.2125 14.6487Z" fill="#32A8C9"/>
<path d="M23.6722 0H22.9757C22.5911 0 22.2793 0.311771 22.2793 0.696439V28.0584L23.6722 32.4961V0Z" fill="#32A8C9"/>
<path d="M34.8149 39V0H25.0649V34.7107L27.0149 35.6341C27.5265 35.8509 27.8566 36.3551 27.8506 36.9107V39H34.8149ZM29.2435 2.08932C29.2435 1.70473 29.5553 1.39288 29.9399 1.39288C30.3245 1.39288 30.6364 1.70465 30.6364 2.08932V3.4822C30.6364 3.86679 30.3246 4.17864 29.9399 4.17864C29.5553 4.17864 29.2435 3.86687 29.2435 3.4822V2.08932ZM29.2435 6.26788C29.2435 5.88329 29.5553 5.57144 29.9399 5.57144C30.3245 5.57144 30.6364 5.88321 30.6364 6.26788V7.66076C30.6364 8.04535 30.3246 8.3572 29.9399 8.3572C29.5553 8.3572 29.2435 8.04543 29.2435 7.66076V6.26788ZM29.2435 10.4464C29.2435 10.0618 29.5553 9.75 29.9399 9.75C30.3245 9.75 30.6364 10.0618 30.6364 10.4464V11.8393C30.6364 12.2239 30.3246 12.5358 29.9399 12.5358C29.5553 12.5358 29.2435 12.224 29.2435 11.8393V10.4464ZM29.2435 14.625C29.2435 14.2404 29.5553 13.9286 29.9399 13.9286C30.3245 13.9286 30.6364 14.2403 30.6364 14.625V16.0179C30.6364 16.4025 30.3246 16.7143 29.9399 16.7143C29.5553 16.7143 29.2435 16.4025 29.2435 16.0179V14.625ZM29.2435 18.8036C29.2435 18.419 29.5553 18.1071 29.9399 18.1071C30.3245 18.1071 30.6364 18.4189 30.6364 18.8036V20.1964C30.6364 20.581 30.3246 20.8929 29.9399 20.8929C29.5553 20.8929 29.2435 20.5811 29.2435 20.1964V18.8036ZM29.2435 22.9821C29.2435 22.5975 29.5553 22.2857 29.9399 22.2857C30.3245 22.2857 30.6364 22.5975 30.6364 22.9821V24.375C30.6364 24.7596 30.3246 25.0714 29.9399 25.0714C29.5553 25.0714 29.2435 24.7597 29.2435 24.375V22.9821ZM29.2435 27.1607C29.2435 26.7761 29.5553 26.4642 29.9399 26.4642C30.3245 26.4642 30.6364 26.776 30.6364 27.1607V28.5536C30.6364 28.9382 30.3246 29.25 29.9399 29.25C29.5553 29.25 29.2435 28.9382 29.2435 28.5536V27.1607ZM29.2435 31.3393C29.2435 30.9547 29.5553 30.6429 29.9399 30.6429C30.3245 30.6429 30.6364 30.9546 30.6364 31.3393V32.7322C30.6364 33.1168 30.3246 33.4286 29.9399 33.4286C29.5553 33.4286 29.2435 33.1169 29.2435 32.7322V31.3393ZM29.2435 35.5179C29.2435 35.1333 29.5553 34.8214 29.9399 34.8214C30.3245 34.8214 30.6364 35.1332 30.6364 35.5179V36.9108C30.6364 37.2953 30.3246 37.6072 29.9399 37.6072C29.5553 37.6072 29.2435 37.2954 29.2435 36.9108V35.5179Z" fill="#32A8C9"/>
<path d="M36.208 0V39H36.9044C37.289 39 37.6009 38.6882 37.6009 38.3036V0.696439C37.6009 0.311848 37.2891 0 36.9044 0L36.208 0Z" fill="#32A8C9"/>
</g>
<defs>
<clipPath id="clip0_110_1507">
<rect width="39" height="39" fill="white"/>
</clipPath>
</defs>
</svg>
