<svg width="39" height="39" viewBox="0 0 39 39" fill="none" xmlns="http://www.w3.org/2000/svg">
<g clip-path="url(#clip0_110_1477)">
<path d="M15.5367 9.73486C11.9693 9.73486 8.39626 11.6677 5.67773 15.5332C11.1205 23.2701 19.9529 23.2701 25.3957 15.5332C22.6772 11.6677 19.104 9.73486 15.5367 9.73486ZM15.5371 20.4291C12.8363 20.4291 10.6466 18.2394 10.6466 15.5336C10.6466 12.8328 12.8363 10.6431 15.5371 10.6431C18.2328 10.6431 20.4325 12.8328 20.4325 15.5336C20.4325 18.2394 18.2328 20.4291 15.5371 20.4291Z" fill="#32A8C9"/>
<path d="M25.9177 5.15242C20.1824 -0.582871 10.8855 -0.582871 5.15022 5.15242C-0.57937 10.8877 -0.57937 20.1846 5.15022 25.9199C10.8855 31.6552 20.1881 31.6552 25.9177 25.9199C31.653 20.1846 31.653 10.8877 25.9177 5.15242ZM23.8358 23.8322C19.259 28.409 11.8146 28.409 7.23784 23.838C2.66109 19.2612 2.66109 11.8168 7.23784 7.24008C11.8146 2.66332 19.259 2.66332 23.8358 7.24008C28.4126 11.8168 28.4126 19.2612 23.8358 23.8322Z" fill="#32A8C9"/>
<path d="M37.8931 35.4749L35.4728 37.8952C35.1287 38.2336 34.5724 38.2336 34.2283 37.8952L26.5315 30.1927C25.5622 31.1505 24.0023 31.1447 23.0387 30.1812L22.3677 29.5044C23.8933 28.7646 25.2984 27.7609 26.5258 26.5278C27.7589 25.2947 28.7625 23.8896 29.5081 22.364L30.1791 23.0408C31.1427 24.0043 31.1484 25.5643 30.1906 26.5335L37.8931 34.2304C38.2315 34.5744 38.2315 35.1308 37.8931 35.4749Z" fill="#32A8C9"/>
<path d="M15.5368 12.7001C13.9711 12.7001 12.7036 13.9676 12.7036 15.5333C12.7036 17.1047 13.9711 18.3665 15.5368 18.3665C17.0968 18.3665 18.3701 17.1047 18.3701 15.5333C18.3701 13.9676 17.0968 12.7001 15.5368 12.7001ZM14.8658 15.539C14.4299 15.539 14.0801 15.1834 14.0801 14.7533C14.0801 14.3174 14.4299 13.9676 14.8658 13.9676C15.2959 13.9676 15.6458 14.3174 15.6458 14.7533C15.6458 15.1834 15.2959 15.539 14.8658 15.539Z" fill="#32A8C9"/>
</g>
<defs>
<clipPath id="clip0_110_1477">
<rect width="39" height="39" fill="white"/>
</clipPath>
</defs>
</svg>
