<svg width="39" height="39" viewBox="0 0 39 39" fill="none" xmlns="http://www.w3.org/2000/svg">
<g clip-path="url(#clip0_110_1528)">
<path d="M23.4393 35.5221C23.1177 35.6022 22.7898 35.6734 22.4644 35.7333C21.6136 35.8915 21.0512 36.7098 21.2085 37.5613C21.2862 37.9802 21.5242 38.3291 21.8472 38.5569C22.1801 38.7912 22.6038 38.897 23.0355 38.8167C23.4231 38.7448 23.8137 38.6602 24.197 38.5645C25.0371 38.3554 25.5489 37.5043 25.3393 36.6647C25.1302 35.8242 24.2799 35.3128 23.4393 35.5221Z" fill="#32A8C9"/>
<path d="M35.0336 14.5074C35.1434 14.8384 35.3531 15.1086 35.6179 15.2953C36.0106 15.5719 36.5245 15.6649 37.0148 15.5028C37.8369 15.2298 38.2823 14.3433 38.0103 13.5217C37.8864 13.1471 37.7489 12.7714 37.6025 12.4055C37.2809 11.6015 36.3689 11.2101 35.5645 11.5317C34.761 11.8531 34.3694 12.7653 34.6912 13.5696C34.8143 13.8771 34.9296 14.1927 35.0336 14.5074Z" fill="#32A8C9"/>
<path d="M28.5341 33.2836C28.2576 33.4662 27.9721 33.6429 27.6846 33.8085C26.9343 34.2412 26.6774 35.2002 27.1099 35.9501C27.2274 36.1541 27.3838 36.3208 27.564 36.4483C28.0476 36.7886 28.7045 36.8395 29.2513 36.5245C29.5932 36.3273 29.9332 36.1175 30.2626 35.8997C30.9847 35.4226 31.1835 34.4499 30.7061 33.7274C30.2289 33.0047 29.2565 32.8062 28.5341 33.2836Z" fill="#32A8C9"/>
<path d="M38.985 18.8862C38.9509 18.0208 38.222 17.3473 37.3564 17.3811C36.4919 17.4152 35.8179 18.1443 35.8518 19.0093C35.8648 19.3401 35.8682 19.6757 35.8605 20.0061C35.8484 20.5488 36.1138 21.0325 36.5263 21.3233C36.772 21.4963 37.0702 21.601 37.3935 21.6084C38.2589 21.6276 38.976 20.9412 38.9952 20.0755C39.0038 19.6807 39.0006 19.2807 38.985 18.8862Z" fill="#32A8C9"/>
<path d="M34.7778 29.1591C34.0839 28.6385 33.1022 28.7799 32.5825 29.4725C32.3835 29.7378 32.1739 29.9998 31.9593 30.252C31.3984 30.911 31.4776 31.9007 32.1366 32.462C32.1741 32.4938 32.2121 32.5231 32.2515 32.5506C32.9066 33.0124 33.817 32.9063 34.3467 32.2848C34.603 31.9838 34.8528 31.6708 35.0907 31.354C35.6104 30.6614 35.4698 29.679 34.7778 29.1591Z" fill="#32A8C9"/>
<path d="M37.0825 23.4916C36.2563 23.2326 35.3764 23.6925 35.1175 24.5187C35.0184 24.8343 34.9086 25.1515 34.7901 25.4621C34.5298 26.1459 34.7792 26.8982 35.3509 27.3014C35.4558 27.375 35.5713 27.4375 35.6968 27.485C36.5058 27.7936 37.4116 27.3878 37.7199 26.5785C37.8607 26.2092 37.9913 25.8319 38.1094 25.4567C38.3681 24.6303 37.9085 23.7507 37.0825 23.4916Z" fill="#32A8C9"/>
<path d="M16.5992 35.7474C15.1975 35.4957 13.8528 35.0671 12.5778 34.4694C12.5627 34.4615 12.5492 34.4525 12.5334 34.4453C12.2329 34.3039 11.9329 34.1524 11.6422 33.9941C11.6412 33.993 11.6394 33.9922 11.6378 33.9915C11.1043 33.6978 10.5837 33.3727 10.0779 33.0167C2.70281 27.8214 0.929529 17.5946 6.12511 10.2196C7.25487 8.61646 8.62205 7.27904 10.1463 6.21904C10.165 6.20596 10.1838 6.19296 10.2024 6.1798C15.5735 2.47899 22.8665 2.22958 28.5697 6.0325L27.3448 7.80234C27.0043 8.29496 27.2138 8.65394 27.8099 8.60028L33.1307 8.12393C33.7276 8.07028 34.0846 7.55394 33.924 6.97749L32.4952 1.82952C32.3353 1.2524 31.9257 1.18332 31.5849 1.67585L30.3571 3.44988C26.1717 0.640326 21.1518 -0.431001 16.1692 0.433002C15.6674 0.519855 15.1726 0.626158 14.6846 0.749898C14.6808 0.750569 14.6778 0.750988 14.6748 0.751658C14.6559 0.756269 14.6368 0.762389 14.6184 0.767503C10.3219 1.87085 6.57321 4.37676 3.89829 7.95215C3.87574 7.9789 3.85252 8.00505 3.83122 8.03414C3.74227 8.15394 3.654 8.27651 3.56756 8.39908C3.42622 8.59995 3.28688 8.80585 3.15359 9.01174C3.1369 9.03656 3.12416 9.06179 3.10957 9.08686C0.902199 12.5074 -0.162504 16.4619 0.0200886 20.4878C0.0205078 20.5011 0.0197532 20.5144 0.0200886 20.528C0.0377777 20.9212 0.0689643 21.32 0.111301 21.7125C0.113564 21.7378 0.119181 21.7618 0.123457 21.7871C0.167219 22.1818 0.222131 22.5774 0.290959 22.9729C0.990478 27.0086 2.8942 30.6401 5.74685 33.4657C5.75347 33.4723 5.76035 33.4795 5.76705 33.4864C5.7694 33.489 5.772 33.4904 5.77426 33.4928C6.54068 34.2487 7.37434 34.9479 8.27196 35.5801C10.621 37.2354 13.2367 38.3295 16.0459 38.8336C16.8982 38.9867 17.7124 38.4193 17.8654 37.5674C18.0182 36.7149 17.4513 35.9 16.5992 35.7474Z" fill="#32A8C9"/>
<path d="M18.5381 6.97485C17.8369 6.97485 17.269 7.54325 17.269 8.24336V20.8812L28.8274 26.8562C29.0134 26.9525 29.2126 26.9979 29.4086 26.9979C29.8677 26.9979 30.3111 26.7479 30.5365 26.3117C30.858 25.6891 30.6147 24.9243 29.9922 24.6028L19.8056 19.3365V8.24336C19.8056 7.54325 19.2383 6.97485 18.5381 6.97485Z" fill="#32A8C9"/>
</g>
<defs>
<clipPath id="clip0_110_1528">
<rect width="39" height="39" fill="white"/>
</clipPath>
</defs>
</svg>
