<svg width="31" height="31" viewBox="0 0 31 31" fill="none" xmlns="http://www.w3.org/2000/svg">
<path d="M23.2502 3.875H7.75016C4.89558 3.875 2.5835 6.17417 2.5835 9.00292V21.9971C2.5835 24.8258 4.89558 27.125 7.75016 27.125H23.2502C26.1047 27.125 28.4168 24.8258 28.4168 21.9971V9.00292C28.4168 6.17417 26.1047 3.875 23.2502 3.875ZM10.9793 9.26125C12.6197 9.26125 13.9631 10.6046 13.9631 12.245C13.9631 13.8854 12.6197 15.2287 10.9793 15.2287C9.33891 15.2287 7.99558 13.8854 7.99558 12.245C7.99558 10.6046 9.33891 9.26125 10.9793 9.26125ZM15.9781 21.5192C15.8618 21.6483 15.681 21.7258 15.5002 21.7258H6.4585C6.27766 21.7258 6.09683 21.6483 5.98058 21.5192C5.86433 21.39 5.79975 21.2092 5.81266 21.0283C6.03225 18.8583 7.76308 17.1404 9.93308 16.9337C10.6177 16.8692 11.3281 16.8692 12.0127 16.9337C14.1827 17.1404 15.9264 18.8583 16.1331 21.0283C16.1589 21.2092 16.0943 21.39 15.9781 21.5192ZM24.5418 21.6354H21.9585C21.4289 21.6354 20.9897 21.1962 20.9897 20.6667C20.9897 20.1371 21.4289 19.6979 21.9585 19.6979H24.5418C25.0714 19.6979 25.5106 20.1371 25.5106 20.6667C25.5106 21.1962 25.0714 21.6354 24.5418 21.6354ZM24.5418 16.4688H19.3752C18.8456 16.4688 18.4064 16.0296 18.4064 15.5C18.4064 14.9704 18.8456 14.5312 19.3752 14.5312H24.5418C25.0714 14.5312 25.5106 14.9704 25.5106 15.5C25.5106 16.0296 25.0714 16.4688 24.5418 16.4688ZM24.5418 11.3021H18.0835C17.5539 11.3021 17.1147 10.8629 17.1147 10.3333C17.1147 9.80375 17.5539 9.36458 18.0835 9.36458H24.5418C25.0714 9.36458 25.5106 9.80375 25.5106 10.3333C25.5106 10.8629 25.0714 11.3021 24.5418 11.3021Z" fill="#32A8C9"/>
</svg>
